<svg xmlns="http://www.w3.org/2000/svg" width="32" height="32" viewBox="0 0 32 32">
    <g fill="none" fill-rule="evenodd">
        <path fill="#010202" d="M18.467 22.297l-6.746-9.142 7.146 8.843c.082.1.06.251-.049.336-.11.084-.264.071-.345-.03a.056.056 0 0 1-.006-.007"/>
        <path stroke="#010202" stroke-linecap="round" stroke-linejoin="round" stroke-width=".5" d="M18.511 21.935c.373.47.717 4.596.717 4.596s2.448-2.728 3-6.554c.55-3.825-.201-4.336-.854-6.279-.653-1.942-3.408-4.447-4.817-5.135-1.017-.496-4.272-1.623-6.035-2.222-.635-.215-1.351.14-1.577.775-1.047 2.956-1.245 6.118-.382 9.028.512 1.726 1.393 3.356 2.9 4.155 0 0 3.508 1.724 5.844 1.288 2.336-.436 1.906 3.956 1.906 3.956"/>
        <path stroke="#000" stroke-width=".5" d="M16 30.579l-1.808.312-1.681-.736-1.83-.13-1.456-1.116-1.746-.564-1.147-1.432-1.56-.966-.77-1.665-1.284-1.311-.35-1.801-.932-1.58.091-1.833L1 16l.527-1.757-.091-1.833.932-1.58.35-1.8 1.284-1.312.77-1.665 1.56-.966L7.48 3.655l1.746-.564 1.456-1.116 1.83-.13 1.68-.736L16 1.421l1.808-.312 1.681.736 1.83.13 1.456 1.116 1.746.564 1.147 1.432 1.56.966.77 1.665 1.284 1.311.35 1.801.932 1.58-.091 1.833L31 16l-.527 1.757.091 1.833-.932 1.58-.35 1.8-1.284 1.312-.77 1.665-1.56.966-1.147 1.432-1.746.564-1.456 1.116-1.83.13-1.68.736z"/>
    </g>
</svg>
